<?xml version="1.0" encoding="UTF-8"?>
<svg version="1.1" xmlns="http://www.w3.org/2000/svg" width="224" height="216">
<path d="M0 0 C2.47018504 1.91277079 4.78832407 3.907786 7.08984375 6.01953125 C7.84523437 6.68339844 8.600625 7.34726562 9.37890625 8.03125 C23.60654946 21.25660219 32.67694585 40.52429542 33.42578125 59.9375 C33.75876899 82.82859744 28.91215007 102.77533507 13.08984375 120.01953125 C12.42597656 120.77492187 11.76210937 121.5303125 11.078125 122.30859375 C-2.06319118 136.44583223 -21.27136227 145.57358504 -40.57421875 146.35546875 C-63.48798169 146.70611183 -83.64271877 141.90674839 -100.91015625 126.01953125 C-101.750625 125.27058594 -102.59109375 124.52164063 -103.45703125 123.75 C-117.29586663 110.77084985 -126.46514596 91.85631142 -127.37890625 72.79296875 C-127.41301806 70.66040362 -127.42285627 68.52733138 -127.41015625 66.39453125 C-127.40443604 65.26442627 -127.39871582 64.13432129 -127.39282227 62.9699707 C-126.9788995 43.33999711 -120.01119624 26.72126222 -106.91015625 12.01953125 C-106.245 11.26027344 -105.57984375 10.50101563 -104.89453125 9.71875 C-77.82226624 -19.30873415 -32.11016037 -21.85214941 0 0 Z " fill="#F33F5E" transform="translate(162.91015625,43.98046875)"/>
<path d="M0 0 C0.66 0 1.32 0 2 0 C4.50423671 9.85492437 6.9996318 19.7120406 9.48368931 29.57207203 C10.63735288 34.15015924 11.79407527 38.72742828 12.95776367 43.30297852 C14.08017654 47.71670436 15.19458591 52.13237958 16.30341911 56.54953575 C16.72837426 58.2363989 17.15623328 59.92253318 17.58700752 61.60791969 C18.18878287 63.96438367 18.78028299 66.32320226 19.36938477 68.68286133 C19.55064407 69.38273163 19.73190338 70.08260193 19.9186554 70.80368042 C20.72531974 74.07931273 21.09061967 75.72814098 20 79 C16.99196428 76.04974274 13.9949821 73.08850331 11 70.125 C10.14148438 69.28324219 9.28296875 68.44148438 8.3984375 67.57421875 C7.58632812 66.76855469 6.77421875 65.96289062 5.9375 65.1328125 C5.18339844 64.38918457 4.42929688 63.64555664 3.65234375 62.87939453 C2 61 2 61 2 59 C-4.33582679 64.34474774 -10.18784004 70.09492807 -16 76 C-16.99932928 77.00067027 -17.99919337 78.00080728 -19 79 C-17.52021819 69.89355194 -15.34488039 60.98783802 -13.0859375 52.05078125 C-12.70734107 50.542004 -12.32906087 49.03314736 -11.95108032 47.5242157 C-10.96456564 43.58950722 -9.97381316 39.65587833 -8.9821167 35.72247314 C-7.96724267 31.69389156 -6.95645971 27.6642839 -5.9453125 23.63476562 C-3.96750131 15.75551136 -1.98520344 7.877395 0 0 Z " fill="#FDF6F7" transform="translate(115,71)"/>
<path d="M0 0 C0.33 0 0.66 0 1 0 C1.02708567 1.60407328 1.04643483 3.2082785 1.0625 4.8125 C1.07410156 5.70582031 1.08570313 6.59914063 1.09765625 7.51953125 C1 10 1 10 0 13 C-1.74808271 31.1112832 3.64496727 49.42281551 14.546875 63.80859375 C16 66 16 66 16.515625 68.22265625 C16.67546875 68.80917969 16.8353125 69.39570313 17 70 C18.485 70.495 18.485 70.495 20 71 C21.6875 72.4375 21.6875 72.4375 23 74 C23 74.66 23 75.32 23 76 C23.99 76 24.98 76 26 76 C26.33 77.32 26.66 78.64 27 80 C27.99 80 28.98 80 30 80 C30 80.66 30 81.32 30 82 C30.8353125 82.4021875 30.8353125 82.4021875 31.6875 82.8125 C34 84 34 84 36.1875 85.375 C40.88778708 88.09072142 45.85084653 90.28361551 51 92 C51 92.66 51 93.32 51 94 C51.57032959 94.05534912 52.14065918 94.11069824 52.72827148 94.16772461 C55.29848753 94.41973743 57.86797631 94.67852728 60.4375 94.9375 C61.33533203 95.02451172 62.23316406 95.11152344 63.15820312 95.20117188 C64.01220703 95.28818359 64.86621094 95.37519531 65.74609375 95.46484375 C66.53685303 95.543396 67.3276123 95.62194824 68.14233398 95.70288086 C70 96 70 96 71 97 C77.97993657 97.41227647 84.8841607 97.43969491 91.6640625 95.625 C93.45574057 95.14562125 95.26814433 94.74316064 97.0859375 94.375 C105.16455134 92.71784844 112.54108714 90.43117796 119.15234375 85.34375 C121 84 121 84 123 84 C123 83.34 123 82.68 123 82 C124.4540625 81.5978125 124.4540625 81.5978125 125.9375 81.1875 C127.4534375 80.5996875 127.4534375 80.5996875 129 80 C129.33 79.01 129.66 78.02 130 77 C131.4375 75.3125 131.4375 75.3125 133 74 C133.66 74 134.32 74 135 74 C135.28875 73.38125 135.5775 72.7625 135.875 72.125 C137 70 137 70 139 68 C139.6425235 65.93125966 139.6425235 65.93125966 140 64 C140.99 64 141.98 64 143 64 C143.28987793 63.42024414 143.57975586 62.84048828 143.87841797 62.24316406 C146.91894531 56.16210937 149.95947266 50.08105469 153 44 C154.23457185 47.70371556 153.30659468 49.05338804 151.65063477 52.44506836 C151.29155029 53.1438208 150.93246582 53.84257324 150.5625 54.5625 C150.19632568 55.28123291 149.83015137 55.99996582 149.45288086 56.74047852 C146.28708465 62.77453624 142.61371917 67.97166362 138 73 C137.33613281 73.75539063 136.67226562 74.51078125 135.98828125 75.2890625 C122.84696507 89.42630098 103.63879398 98.55405379 84.3359375 99.3359375 C61.42217456 99.68658058 41.26743748 94.88721714 24 79 C23.15953125 78.25105469 22.3190625 77.50210938 21.453125 76.73046875 C8.40769236 64.4954342 -0.79687341 46.67251315 -2.27124023 28.69213867 C-2.36384141 25.33123186 -2.3611922 21.98670958 -2.3125 18.625 C-2.31572266 17.48933594 -2.31894531 16.35367188 -2.32226562 15.18359375 C-2.28735511 9.76929083 -2.23469267 5.03918744 0 0 Z " fill="#EC4F6D" transform="translate(38,91)"/>
<path d="M0 0 C6.03918121 0.47748537 10.52029529 1.7727974 15.875 4.5625 C16.56899902 4.91747559 17.26299805 5.27245117 17.97802734 5.63818359 C26.47024033 10.11826526 33.41159293 16.06483466 40 23 C39.505 24.485 39.505 24.485 39 26 C37 25 37 25 36.14453125 23.15625 C34.72945616 20.49030649 33.10583966 19.28835202 30.6875 17.5 C28.24080249 15.67468599 25.8645351 13.88190239 23.5625 11.875 C16.93462396 7.02533461 10.03472889 4.42551642 2 3 C2 2.34 2 1.68 2 1 C1.34 0.67 0.68 0.34 0 0 Z " fill="#EF4E6F" transform="translate(136,33)"/>
<path d="M0 0 C4.034496 6.051744 3.21703409 13.0867776 3.25 20.125 C3.270625 21.20265625 3.29125 22.2803125 3.3125 23.390625 C3.34781693 30.71888771 2.30520505 37.04440014 0 44 C-1.11622836 40.65131493 -0.83969179 39.60259205 -0.0625 36.25 C1.64595599 27.59228386 1.78269193 18.64464104 0 10 C-0.06459042 8.23022239 -0.08611065 6.45829848 -0.0625 4.6875 C-0.05347656 3.80449219 -0.04445312 2.92148438 -0.03515625 2.01171875 C-0.02355469 1.34785156 -0.01195312 0.68398437 0 0 Z " fill="#F15273" transform="translate(193,90)"/>
<path d="M0 0 C0.33 0.99 0.66 1.98 1 3 C0.0114362 4.34183434 -0.9911163 5.67337592 -2 7 C-2.80332802 9.22460067 -3.52873321 11.47839036 -4.1875 13.75 C-4.53167969 14.92046875 -4.87585937 16.0909375 -5.23046875 17.296875 C-5.48441406 18.18890625 -5.73835938 19.0809375 -6 20 C-6.66 20 -7.32 20 -8 20 C-8.66 21.32 -9.32 22.64 -10 24 C-9.50631757 18.12209351 -7.73352993 13.81488375 -5 8.625 C-4.63132812 7.90183594 -4.26265625 7.17867188 -3.8828125 6.43359375 C-1.18430261 1.18430261 -1.18430261 1.18430261 0 0 Z " fill="#F04E71" transform="translate(49,65)"/>
<path d="M0 0 C0.66 0.33 1.32 0.66 2 1 C0.71034824 2.37562854 -0.62689293 3.70766393 -2 5 C-2.66 5 -3.32 5 -4 5 C-4.33 5.99 -4.66 6.98 -5 8 C-6.62102968 9.71108689 -8.29503463 11.37253306 -10 13 C-10.86625 13.86625 -11.7325 14.7325 -12.625 15.625 C-14.41666667 17.41666667 -16.20833333 19.20833333 -18 21 C-18 15.4848483 -12.6982596 11.77044785 -9 8 C-6.06452633 5.25405391 -3.06806982 2.59661701 0 0 Z " fill="#F14E70" transform="translate(69,44)"/>
<path d="M0 0 C-0.58136719 0.28875 -1.16273437 0.5775 -1.76171875 0.875 C-3.14577122 1.57064941 -4.52461502 2.27691019 -5.89453125 3 C-10.20407663 5.24693201 -14.28435316 6.82108829 -19 8 C-19 8.66 -19 9.32 -19 10 C-20.98 10.33 -22.96 10.66 -25 11 C-21.58026575 6.98514316 -17.80638654 5.26517879 -13.0625 3.25 C-12.35931641 2.93417969 -11.65613281 2.61835937 -10.93164062 2.29296875 C-7.15747057 0.65879203 -4.19720278 -0.42711261 0 0 Z " fill="#F44F73" transform="translate(96,33)"/>
<path d="M0 0 C1.09180878 3.30529345 0.88297902 5.42086032 0.00390625 8.765625 C-0.33930664 10.09980469 -0.33930664 10.09980469 -0.68945312 11.4609375 C-0.93630859 12.38132812 -1.18316406 13.30171875 -1.4375 14.25 C-1.68048828 15.18585938 -1.92347656 16.12171875 -2.17382812 17.0859375 C-2.77412867 19.3929749 -3.38310665 21.69735439 -4 24 C-4.33 24 -4.66 24 -5 24 C-5.37186741 15.44704952 -3.68852395 7.71236826 0 0 Z " fill="#DB4E68" transform="translate(108,95)"/>
<path d="M0 0 C1.77586005 3.5517201 2.48627846 5.91767077 3.125 9.75 C3.29257813 10.73484375 3.46015625 11.7196875 3.6328125 12.734375 C3.81457031 13.85585937 3.81457031 13.85585937 4 15 C1.69 13.02 -0.62 11.04 -3 9 C-2.34 8.67 -1.68 8.34 -1 8 C-0.34 8.33 0.32 8.66 1 9 C0.67 6.03 0.34 3.06 0 0 Z " fill="#FCC2CD" transform="translate(132,135)"/>
<path d="M0 0 C0.33 0 0.66 0 1 0 C-0.06739687 13.45481848 -0.06739687 13.45481848 -2 19 C-2.66 19.33 -3.32 19.66 -4 20 C-3.34034961 13.13963599 -1.7637236 6.65556077 0 0 Z " fill="#FCD6DC" transform="translate(102,123)"/>
<path d="M0 0 C2.06240906 3.09361358 2.38991902 4.46698546 2.75 8.0625 C2.84796875 8.94035156 2.9459375 9.81820312 3.046875 10.72265625 C3 13 3 13 1 15 C-0.32286246 10.03926578 -0.08893197 5.08888488 0 0 Z " fill="#EB4E6B" transform="translate(193,90)"/>
<path d="M0 0 C0.66 0 1.32 0 2 0 C3.13764351 4.26616316 4 7.56486311 4 12 C3.01 11.67 2.02 11.34 1 11 C1.33 9.35 1.66 7.7 2 6 C1.01 6 0.02 6 -1 6 C-0.67 4.02 -0.34 2.04 0 0 Z " fill="#FCC8D5" transform="translate(115,71)"/>
<path d="M0 0 C0.33 0.99 0.66 1.98 1 3 C0.01 3.66 -0.98 4.32 -2 5 C-2.33 5.99 -2.66 6.98 -3 8 C-3.99 8 -4.98 8 -6 8 C-6 8.99 -6 9.98 -6 11 C-6.99 10.67 -7.98 10.34 -9 10 C-6.03 6.7 -3.06 3.4 0 0 Z " fill="#E45D76" transform="translate(105,140)"/>
<path d="M0 0 C1.45606519 4.52092968 0.27032841 7.51648796 -1 12 C-1.66 12 -2.32 12 -3 12 C-3.33 10.68 -3.66 9.36 -4 8 C-3.01 7.67 -2.02 7.34 -1 7 C-0.67 4.69 -0.34 2.38 0 0 Z " fill="#DF4B67" transform="translate(102,119)"/>
<path d="M0 0 C0.66 0 1.32 0 2 0 C2.98248524 4.0527516 3.08159574 7.83861737 3 12 C0.60926555 8.17482487 0.44033448 4.40334476 0 0 Z " fill="#E24B68" transform="translate(130,123)"/>
<path d="M0 0 C0.66 0 1.32 0 2 0 C2.33 0.99 2.66 1.98 3 3 C2.01 3 1.02 3 0 3 C0 3.66 0 4.32 0 5 C-1.65 5.33 -3.3 5.66 -5 6 C-3.38405168 3.95880212 -1.7143618 1.95927063 0 0 Z " fill="#E1657E" transform="translate(115,130)"/>
<path d="M0 0 C2.2344598 4.03292745 2.54496743 7.44967434 3 12 C0.89366282 10.29171079 0.06198392 9.47851584 -0.29296875 6.73828125 C-0.25816406 5.93777344 -0.22335938 5.13726562 -0.1875 4.3125 C-0.16042969 3.50425781 -0.13335937 2.69601563 -0.10546875 1.86328125 C-0.07066406 1.24839844 -0.03585938 0.63351563 0 0 Z " fill="#FCD0D7" transform="translate(120,87)"/>
<path d="M0 0 C1 2 1 2 0.875 4.4375 C0 7 0 7 -2.5625 8.8125 C-3.366875 9.204375 -4.17125 9.59625 -5 10 C-3.66511872 6.40608886 -2.03977277 3.24509304 0 0 Z " fill="#EA4364" transform="translate(51,64)"/>
<path d="M0 0 C0 3 0 3 -2 5.1875 C-2.66 5.785625 -3.32 6.38375 -4 7 C-4.66 6.34 -5.32 5.68 -6 5 C-5.01 4.67 -4.02 4.34 -3 4 C-2.67 3.01 -2.34 2.02 -2 1 C-1.34 0.67 -0.68 0.34 0 0 Z " fill="#EB4364" transform="translate(73,43)"/>
</svg>
