<?xml version="1.0" encoding="UTF-8"?>
<svg version="1.1" xmlns="http://www.w3.org/2000/svg" width="56" height="65">
<path d="M0 0 C5.44296262 3.24283788 10.0567259 8.16548467 12.4140625 14.08984375 C13.24369895 21.92315535 13.50139964 29.69348418 8.4140625 36.08984375 C4.04706844 40.70519766 -0.18211047 43.71503053 -6.63671875 44.42578125 C-14.59903886 44.52113838 -20.44982994 44.07790272 -26.33203125 38.40625 C-32.11918003 31.9529546 -33.04789255 27.27070687 -32.89453125 18.57421875 C-32.31045321 11.97931223 -29.95117688 8.08832775 -25.0859375 3.71484375 C-18.08013058 -1.98533552 -8.55062671 -3.00951061 0 0 Z M-10.5859375 15.08984375 C-12.0709375 21.52484375 -12.0709375 21.52484375 -13.5859375 28.08984375 C-11.6059375 27.75984375 -9.6259375 27.42984375 -7.5859375 27.08984375 C-7.7096875 25.85234375 -7.8334375 24.61484375 -7.9609375 23.33984375 C-8.06535156 22.29570313 -8.06535156 22.29570313 -8.171875 21.23046875 C-8.5649782 18.68307264 -8.5649782 18.68307264 -10.5859375 15.08984375 Z " fill="#E73E5B" transform="translate(39.5859375,11.91015625)"/>
<path d="M0 0 C4.75694326 1.76183084 7.47441174 5.59507961 10.125 9.7734375 C12.32222291 15.3645851 11.85471241 22.74492759 10.34765625 28.484375 C7.7607915 34.21322568 3.27569539 38.35101048 -2.296875 41.15625 C-5.58467515 42.18249976 -8.37476119 42.19444927 -11.8125 42.125 C-12.97394531 42.10695312 -14.13539062 42.08890625 -15.33203125 42.0703125 C-16.21246094 42.04710937 -17.09289062 42.02390625 -18 42 C-18 41.67 -18 41.34 -18 41 C-17.0821875 40.91363281 -16.164375 40.82726563 -15.21875 40.73828125 C-4.69542506 39.57737401 -4.69542506 39.57737401 4 34 C8.60306662 27.97956683 9.87463717 21.41012047 9 14 C7.25462531 8.5172469 5.13282989 5.70899356 0 3 C0 2.01 0 1.02 0 0 Z " fill="#3A161C" transform="translate(41,14)"/>
<path d="M0 0 C0.66 0 1.32 0 2 0 C1 5 0 10 -1 15 C-0.401875 14.79375 0.19625 14.5875 0.8125 14.375 C3 14 3 14 6 16 C5.67 16.99 5.34 17.98 5 19 C4.01 18.67 3.02 18.34 2 18 C1.34 19.32 0.68 20.64 0 22 C-2.475 21.01 -2.475 21.01 -5 20 C-3.35 13.4 -1.7 6.8 0 0 Z " fill="#9A2B3D" transform="translate(28,24)"/>
<path d="M0 0 C0.66 0 1.32 0 2 0 C-0 10 -0 10 -0.62890625 12.70703125 C-1.23267102 15.0216281 -1.23267102 15.0216281 0 17 C-0.66 17 -1.32 17 -2 17 C-2 17.66 -2 18.32 -2 19 C-2.66 19 -3.32 19 -4 19 C-2.89309248 12.59406714 -1.66054831 6.28636144 0 0 Z " fill="#2D0E12" transform="translate(28,24)"/>
<path d="M0 0 C4.79834628 1.7136951 6.80715961 5.61431921 9 10 C4.71095765 8.4114658 2.67654474 5.56872632 0 2 C0 1.34 0 0.68 0 0 Z " fill="#662330" transform="translate(9,43)"/>
</svg>
